<svg xmlns="http://www.w3.org/2000/svg" viewBox="0 0 32 32" fill="none">
  <!-- Left page -->
  <path d="M3 7C3 5.9 3.9 5 5 5H14V27H5C3.9 27 3 26.1 3 25V7Z" fill="#3b82f6"/>
  <!-- Right page -->
  <path d="M18 5H27C28.1 5 29 5.9 29 7V25C29 26.1 28.1 27 27 27H18V5Z" fill="#1d4ed8"/>
  <!-- Spine -->
  <rect x="14" y="3" width="4" height="26" rx="1" fill="#1e3a8a"/>
  <!-- Lines on left page -->
  <line x1="6" y1="11" x2="12" y2="11" stroke="white" stroke-width="1.2" stroke-linecap="round" opacity="0.6"/>
  <line x1="6" y1="14" x2="12" y2="14" stroke="white" stroke-width="1.2" stroke-linecap="round" opacity="0.6"/>
  <line x1="6" y1="17" x2="12" y2="17" stroke="white" stroke-width="1.2" stroke-linecap="round" opacity="0.6"/>
  <!-- Lines on right page -->
  <line x1="20" y1="11" x2="26" y2="11" stroke="white" stroke-width="1.2" stroke-linecap="round" opacity="0.6"/>
  <line x1="20" y1="14" x2="26" y2="14" stroke="white" stroke-width="1.2" stroke-linecap="round" opacity="0.6"/>
  <line x1="20" y1="17" x2="26" y2="17" stroke="white" stroke-width="1.2" stroke-linecap="round" opacity="0.6"/>
</svg>
